<svg width="16" height="15" viewBox="0 0 16 15" fill="none" xmlns="http://www.w3.org/2000/svg">
<path d="M11.9806 12.7918C11.9806 12.7918 12.0089 12.7635 12.0654 12.707C12.122 12.6504 12.1503 12.5448 12.1503 12.39C12.1503 12.2353 12.0937 12.1013 11.9806 11.9882C11.8675 11.8751 11.7336 11.8186 11.5788 11.8186C11.4241 11.8186 11.2901 11.8751 11.177 11.9882C11.0639 12.1013 11.0074 12.2353 11.0074 12.39C11.0074 12.5448 11.0639 12.6787 11.177 12.7918C11.2901 12.9049 11.4241 12.9615 11.5788 12.9615C11.7336 12.9615 11.8675 12.9049 11.9806 12.7918ZM14.2663 12.7918C14.2663 12.7918 14.2946 12.7635 14.3511 12.707C14.4077 12.6504 14.436 12.5448 14.436 12.39C14.436 12.2353 14.3794 12.1013 14.2663 11.9882C14.1532 11.8751 14.0193 11.8186 13.8645 11.8186C13.7098 11.8186 13.5758 11.8751 13.4628 11.9882C13.3497 12.1013 13.2931 12.2353 13.2931 12.39C13.2931 12.5448 13.3497 12.6787 13.4628 12.7918C13.5758 12.9049 13.7098 12.9615 13.8645 12.9615C14.0193 12.9615 14.1532 12.9049 14.2663 12.7918ZM15.5788 10.39V13.2472C15.5788 13.4853 15.4955 13.6876 15.3288 13.8543C15.1622 14.021 14.9598 14.1043 14.7217 14.1043H1.57882C1.34073 14.1043 1.13835 14.021 0.97168 13.8543C0.805013 13.6876 0.72168 13.4853 0.72168 13.2472V10.39C0.72168 10.1519 0.805013 9.94955 0.97168 9.78288C1.13835 9.61621 1.34073 9.53288 1.57882 9.53288H5.73061L6.93597 10.7472C7.2812 11.0805 7.68597 11.2472 8.15025 11.2472C8.61454 11.2472 9.0193 11.0805 9.36454 10.7472L10.5788 9.53288H14.7217C14.9598 9.53288 15.1622 9.61621 15.3288 9.78288C15.4955 9.94955 15.5788 10.1519 15.5788 10.39ZM12.677 5.30967C12.7782 5.55371 12.7366 5.76205 12.552 5.93467L8.55204 9.93467C8.44489 10.0478 8.31097 10.1043 8.15025 10.1043C7.98954 10.1043 7.85561 10.0478 7.74847 9.93467L3.74847 5.93467C3.56394 5.76205 3.52227 5.55371 3.62347 5.30967C3.72466 5.07752 3.90025 4.96145 4.15025 4.96145H6.43597V0.961452C6.43597 0.806689 6.49251 0.672761 6.60561 0.559666C6.7187 0.44657 6.85263 0.390022 7.00739 0.390022H9.29311C9.44787 0.390022 9.5818 0.44657 9.69489 0.559666C9.80799 0.672761 9.86454 0.806689 9.86454 0.961452V4.96145H12.1503C12.4003 4.96145 12.5758 5.07752 12.677 5.30967Z" fill="white"/>
</svg>
