<svg width="24" height="24" viewBox="0 0 16 18" fill="none" xmlns="http://www.w3.org/2000/svg">
<g opacity="0.9" clip-path="url(#clip0_2_528)">
<path d="M3.86795 2.32031C3.86795 2.32031 4.16343 2.14787 4.75439 1.80301C5.34535 1.45814 6.34061 1.28571 7.74016 1.28571C9.13972 1.28571 10.4305 1.63058 11.6124 2.32031C12.7943 3.01004 13.7301 3.94587 14.4199 5.12778C15.1096 6.3097 15.4545 7.60044 15.4545 8.99999C15.4545 10.6808 14.9639 12.1925 13.9829 13.5352C13.0019 14.8778 11.7346 15.8069 10.181 16.3225C10.0002 16.356 9.86628 16.3326 9.77923 16.2522C9.69217 16.1719 9.64865 16.0714 9.64865 15.9509C9.64865 15.9308 9.65032 15.6747 9.65367 15.1825C9.65702 14.6903 9.65869 14.24 9.65869 13.8315C9.65869 13.1819 9.48458 12.7065 9.13637 12.4051C9.51807 12.365 9.86126 12.3047 10.1659 12.2243C10.4706 12.144 10.7854 12.0134 11.1101 11.8326C11.4349 11.6518 11.7061 11.4291 11.9238 11.1646C12.1414 10.9001 12.3188 10.5485 12.4561 10.1099C12.5934 9.67131 12.662 9.16741 12.662 8.59821C12.662 7.80133 12.3975 7.1116 11.8685 6.52901C12.1163 5.91964 12.0895 5.2366 11.7882 4.47991C11.6007 4.41964 11.3295 4.45647 10.9745 4.5904C10.6196 4.72433 10.3116 4.87165 10.0504 5.03236L9.66874 5.27343C9.04597 5.09933 8.40311 5.01227 7.74016 5.01227C7.07722 5.01227 6.43436 5.09933 5.81159 5.27343C5.70445 5.19977 5.56215 5.10937 5.3847 5.00223C5.20724 4.89508 4.92766 4.76618 4.54597 4.61551C4.16427 4.46484 3.87967 4.41964 3.69217 4.47991C3.39083 5.2366 3.36405 5.91964 3.61182 6.52901C3.0828 7.1116 2.81829 7.80133 2.81829 8.59821C2.81829 9.16741 2.88693 9.66964 3.0242 10.1049C3.16148 10.5402 3.33726 10.8917 3.55155 11.1596C3.76583 11.4275 4.03537 11.6518 4.36014 11.8326C4.68492 12.0134 4.99965 12.144 5.30434 12.2243C5.60903 12.3047 5.95222 12.365 6.33391 12.4051C6.07275 12.6462 5.90869 12.9911 5.84173 13.4397C5.7011 13.5067 5.55043 13.5569 5.38972 13.5904C5.229 13.6239 5.03816 13.6406 4.81717 13.6406C4.59619 13.6406 4.37688 13.5686 4.15925 13.4247C3.94162 13.2807 3.75579 13.0714 3.60177 12.7969C3.47454 12.5826 3.31215 12.4085 3.11461 12.2745C2.91706 12.1406 2.75133 12.0603 2.6174 12.0335L2.4165 12.0033C2.27588 12.0033 2.17878 12.0184 2.12521 12.0485C2.07164 12.0787 2.0549 12.1172 2.07499 12.1641C2.09508 12.2109 2.12521 12.2578 2.16539 12.3047C2.20557 12.3516 2.24909 12.3917 2.29597 12.4252L2.36628 12.4754C2.5136 12.5424 2.65925 12.6696 2.80322 12.8571C2.9472 13.0446 3.05266 13.2154 3.11963 13.3694L3.22008 13.6004C3.30713 13.8549 3.45445 14.0608 3.66204 14.2182C3.86963 14.3756 4.09396 14.476 4.33503 14.5195C4.5761 14.5631 4.8088 14.5865 5.03313 14.5898C5.25746 14.5932 5.44329 14.5815 5.59061 14.5547L5.82164 14.5145C5.82164 14.769 5.82331 15.0653 5.82666 15.4035C5.83001 15.7416 5.83168 15.9241 5.83168 15.9509C5.83168 16.0714 5.78816 16.1719 5.7011 16.2522C5.61405 16.3326 5.48012 16.356 5.29932 16.3225C3.74574 15.8069 2.47845 14.8778 1.49742 13.5352C0.516392 12.1925 0.0258789 10.6808 0.0258789 8.99999C0.0258789 7.60044 0.370745 6.3097 1.06048 5.12778C1.75021 3.94587 2.68604 3.01004 3.86795 2.32031ZM2.94887 12.365C2.96896 12.3181 2.94552 12.2779 2.87856 12.2444C2.81159 12.2243 2.76807 12.231 2.74798 12.2645C2.72789 12.3114 2.75133 12.3516 2.81829 12.385C2.87856 12.4252 2.92208 12.4185 2.94887 12.365ZM3.26025 12.7065C3.30713 12.673 3.30043 12.6194 3.24016 12.5458C3.1732 12.4855 3.11963 12.4754 3.07945 12.5156C3.03258 12.5491 3.03927 12.6027 3.09954 12.6763C3.1665 12.7433 3.22008 12.7533 3.26025 12.7065ZM3.56159 13.1585C3.62186 13.1116 3.62186 13.048 3.56159 12.9676C3.50802 12.8806 3.4511 12.8605 3.39083 12.9074C3.33057 12.9408 3.33057 13.0011 3.39083 13.0882C3.4511 13.1752 3.50802 13.1987 3.56159 13.1585ZM3.98347 13.5804C4.03704 13.5268 4.02365 13.4632 3.94329 13.3895C3.86293 13.3091 3.79597 13.2991 3.7424 13.3594C3.68213 13.4129 3.69552 13.4766 3.78258 13.5502C3.86293 13.6306 3.9299 13.6406 3.98347 13.5804ZM4.55601 13.8315C4.5761 13.7578 4.53258 13.7042 4.42543 13.6708C4.32499 13.644 4.26137 13.6674 4.23458 13.7411C4.2078 13.8147 4.25133 13.865 4.36516 13.8917C4.46561 13.9319 4.52923 13.9118 4.55601 13.8315ZM5.18883 13.8817C5.18883 13.7946 5.13191 13.7578 5.01807 13.7712C4.91092 13.7712 4.85735 13.808 4.85735 13.8817C4.85735 13.9687 4.91427 14.0056 5.02811 13.9922C5.13525 13.9922 5.18883 13.9554 5.18883 13.8817ZM5.77141 13.7812C5.75802 13.7076 5.69775 13.6775 5.59061 13.6908C5.48347 13.7109 5.43659 13.7612 5.44999 13.8415C5.46338 13.9219 5.52365 13.9487 5.63079 13.9219C5.73793 13.8951 5.78481 13.8482 5.77141 13.7812Z" fill="white"/>
</g>
<defs>
<clipPath id="clip0_2_528">
<rect width="15.44" height="18" fill="white" transform="matrix(1 0 0 -1 0.0200195 18)"/>
</clipPath>
</defs>
</svg>
