<svg width="14" height="14" viewBox="0 0 14 14" fill="none" xmlns="http://www.w3.org/2000/svg">
<path d="M14 5.54688V11.75C14 12.0938 13.8776 12.388 13.6328 12.6328C13.388 12.8776 13.0938 13 12.75 13H1.25C0.90625 13 0.611979 12.8776 0.367188 12.6328C0.122396 12.388 0 12.0938 0 11.75V5.54688C0.229167 5.80208 0.492188 6.02865 0.789062 6.22656C2.67448 7.50781 3.96875 8.40625 4.67188 8.92188C4.96875 9.14062 5.20964 9.3112 5.39453 9.43359C5.57943 9.55599 5.82552 9.68099 6.13281 9.80859C6.4401 9.9362 6.72656 10 6.99219 10H7H7.00781C7.27344 10 7.5599 9.9362 7.86719 9.80859C8.17448 9.68099 8.42057 9.55599 8.60547 9.43359C8.79036 9.3112 9.03125 9.14062 9.32812 8.92188C10.2135 8.28125 11.5104 7.38281 13.2188 6.22656C13.5156 6.02344 13.776 5.79688 14 5.54688ZM14 3.25C14 3.66146 13.8724 4.05469 13.6172 4.42969C13.362 4.80469 13.0443 5.125 12.6641 5.39062C10.7057 6.75 9.48698 7.59635 9.00781 7.92969C8.95573 7.96615 8.84505 8.04557 8.67578 8.16797C8.50651 8.29036 8.36589 8.38932 8.25391 8.46484C8.14193 8.54036 8.00651 8.625 7.84766 8.71875C7.6888 8.8125 7.53906 8.88281 7.39844 8.92969C7.25781 8.97656 7.1276 9 7.00781 9H7H6.99219C6.8724 9 6.74219 8.97656 6.60156 8.92969C6.46094 8.88281 6.3112 8.8125 6.15234 8.71875C5.99349 8.625 5.85807 8.54036 5.74609 8.46484C5.63411 8.38932 5.49349 8.29036 5.32422 8.16797C5.15495 8.04557 5.04427 7.96615 4.99219 7.92969C4.51823 7.59635 3.83594 7.12109 2.94531 6.50391C2.05469 5.88672 1.52083 5.51562 1.34375 5.39062C1.02083 5.17188 0.716146 4.87109 0.429688 4.48828C0.143229 4.10547 0 3.75 0 3.42188C0 3.01562 0.108073 2.67708 0.324219 2.40625C0.540365 2.13542 0.848958 2 1.25 2H12.75C13.0885 2 13.3815 2.1224 13.6289 2.36719C13.8763 2.61198 14 2.90625 14 3.25Z" fill="white"/>
</svg>
